<svg xmlns="http://www.w3.org/2000/svg" xmlns:xlink="http://www.w3.org/1999/xlink" width="1920" height="1080" viewBox="0 0 1920 1080">
  <defs>
    <clipPath id="clip-path">
      <rect width="36" height="11" fill="none"/>
    </clipPath>
    <clipPath id="clip-path-2">
      <rect width="318" height="175" fill="none"/>
    </clipPath>
    <clipPath id="clip-Web_1920_1">
      <rect width="1920" height="1080"/>
    </clipPath>
  </defs>
  <g id="Web_1920_1" data-name="Web 1920 – 1" clip-path="url(#clip-Web_1920_1)">
    <rect width="1920" height="1080" fill="#fff"/>
    <g id="Rectangle_1" data-name="Rectangle 1" transform="translate(114 102)" fill="#fff" stroke="#707070" stroke-width="1">
      <rect width="901" height="514" stroke="none"/>
      <rect x="0.5" y="0.5" width="900" height="513" fill="none"/>
    </g>
    <g id="Rectangle_2" data-name="Rectangle 2" transform="translate(114 34)" fill="#fff" stroke="#707070" stroke-width="1">
      <rect width="192" height="68" stroke="none"/>
      <rect x="0.5" y="0.5" width="191" height="67" fill="none"/>
    </g>
    <g id="Rectangle_3" data-name="Rectangle 3" transform="translate(332 34)" fill="#e1e1e1" stroke="#707070" stroke-width="1">
      <rect width="196" height="68" stroke="none"/>
      <rect x="0.5" y="0.5" width="195" height="67" fill="none"/>
    </g>
    <g id="Rectangle_4" data-name="Rectangle 4" transform="translate(570 34)" fill="#e1e1e1" stroke="#707070" stroke-width="1">
      <rect width="201" height="68" stroke="none"/>
      <rect x="0.5" y="0.5" width="200" height="67" fill="none"/>
    </g>
    <g id="Rectangle_5" data-name="Rectangle 5" transform="translate(822 34)" fill="#e1e1e1" stroke="#707070" stroke-width="1">
      <rect width="193" height="68" stroke="none"/>
      <rect x="0.5" y="0.5" width="192" height="67" fill="none"/>
    </g>
    <text id="Screen_1" data-name="Screen 1" transform="translate(148 78)" fill="#707070" font-size="20" font-family="SegoeUI, Segoe UI"><tspan x="0" y="0">Screen 1</tspan></text>
    <text id="Screen_2" data-name="Screen 2" transform="translate(372 83)" fill="#707070" font-size="20" font-family="SegoeUI, Segoe UI"><tspan x="0" y="0">Screen 2</tspan></text>
    <text id="Screen_3" data-name="Screen 3" transform="translate(600 83)" fill="#707070" font-size="20" font-family="SegoeUI, Segoe UI"><tspan x="0" y="0">Screen 3</tspan></text>
    <text id="Screen_4" data-name="Screen 4" transform="translate(852 83)" fill="#707070" font-size="20" font-family="SegoeUI, Segoe UI"><tspan x="0" y="0">Screen 4</tspan></text>
    <g id="Rectangle_6" data-name="Rectangle 6" transform="translate(104 644)" fill="#fff" stroke="#707070" stroke-width="1">
      <rect width="971" height="395" stroke="none"/>
      <rect x="0.5" y="0.5" width="970" height="394" fill="none"/>
    </g>
    <g id="Group_9" data-name="Group 9" transform="translate(-29 110)">
      <g id="Rectangle_8" data-name="Rectangle 8" transform="translate(119 932)" fill="#fff" stroke="#707070" stroke-linecap="round" stroke-width="1">
        <rect width="941" height="19" rx="9" stroke="none"/>
        <rect x="0.5" y="0.5" width="940" height="18" rx="8.5" fill="none"/>
      </g>
      <g id="Rectangle_9" data-name="Rectangle 9" transform="translate(164 932)" fill="#aca3a3" stroke="#707070" stroke-linecap="round" stroke-width="1">
        <rect width="300" height="19" rx="9" stroke="none"/>
        <rect x="0.5" y="0.5" width="299" height="18" rx="8.5" fill="none"/>
      </g>
    </g>
    <text id="_0:00" data-name="0:00" transform="translate(133 785)" fill="#707070" font-size="20" font-family="SegoeUI, Segoe UI"><tspan x="0" y="0">0:00</tspan></text>
    <text id="_0:20" data-name="0:20" transform="translate(590 789)" fill="#707070" font-size="20" font-family="SegoeUI, Segoe UI"><tspan x="0" y="0">0:20</tspan></text>
    <text id="_0:40" data-name="0:40" transform="translate(1018 789)" fill="#707070" font-size="20" font-family="SegoeUI, Segoe UI"><tspan x="0" y="0">0:40</tspan></text>
    <g id="Component_1_1" data-name="Component 1 – 1" transform="translate(125 663)">
      <g id="Rectangle_7" data-name="Rectangle 7" fill="#fff" stroke="#707070" stroke-width="1">
        <rect width="388" height="104" stroke="none"/>
        <rect x="0.5" y="0.5" width="387" height="103" fill="none"/>
      </g>
      <text id="Big_Buck_Bunny_.mp4" data-name="Big Buck Bunny .mp4" transform="translate(44 80)" fill="#707070" font-size="20" font-family="SegoeUI, Segoe UI"><tspan x="0" y="0">Big Buck Bunny .mp4</tspan></text>
      <g id="Rectangle_10" data-name="Rectangle 10" transform="translate(374 7)" fill="#fff" stroke="#707070" stroke-width="1">
        <rect width="8" height="90" stroke="none"/>
        <rect x="0.5" y="0.5" width="7" height="89" fill="none"/>
      </g>
      <g id="Rectangle_11" data-name="Rectangle 11" transform="translate(7 6)" fill="#fff" stroke="#707070" stroke-width="1">
        <rect width="8" height="89" stroke="none"/>
        <rect x="0.5" y="0.5" width="7" height="88" fill="none"/>
      </g>
    </g>
    <g id="Rectangle_7-2" data-name="Rectangle 7" transform="translate(519 663)" fill="#fff" stroke="#707070" stroke-width="1">
      <rect width="647" height="104" stroke="none"/>
      <rect x="0.5" y="0.5" width="646" height="103" fill="none"/>
    </g>
    <text id="Choir.mp4" transform="translate(578 727)" fill="#707070" font-size="20" font-family="SegoeUI, Segoe UI"><tspan x="0" y="0">Choir.mp4</tspan></text>
    <g id="Rectangle_10-2" data-name="Rectangle 10" transform="translate(1143 665)" fill="#fff" stroke="#707070" stroke-width="1">
      <rect width="8" height="90" stroke="none"/>
      <rect x="0.5" y="0.5" width="7" height="89" fill="none"/>
    </g>
    <g id="Group_10" data-name="Group 10" transform="translate(726 -224)">
      <g id="Polygon_1" data-name="Polygon 1" transform="translate(406 670) rotate(90)" fill="#100f0f">
        <path d="M 46.21907806396484 50.5 L 0.7809212803840637 50.5 L 23.5 1.194765329360962 L 46.21907806396484 50.5 Z" stroke="none"/>
        <path d="M 23.5 2.389518737792969 L 1.561836242675781 50 L 45.43816375732422 50 L 23.5 2.389518737792969 M 23.5 0 L 47 51 L 0 51 L 23.5 0 Z" stroke="none" fill="#707070"/>
      </g>
      <g id="Component_2_1" data-name="Component 2 – 1" transform="translate(441 670)">
        <g id="Rectangle_13" data-name="Rectangle 13" stroke="#707070" stroke-width="1">
          <rect width="10" height="47" stroke="none"/>
          <rect x="0.5" y="0.5" width="9" height="46" fill="none"/>
        </g>
        <g id="Rectangle_14" data-name="Rectangle 14" transform="translate(17)" stroke="#707070" stroke-width="1">
          <rect width="10" height="47" stroke="none"/>
          <rect x="0.5" y="0.5" width="9" height="46" fill="none"/>
        </g>
      </g>
    </g>
    <line id="Line_1" data-name="Line 1" y2="104" transform="translate(1075.5 663.5)" fill="none" stroke="#707070" stroke-width="1"/>
    <g id="Group_3" data-name="Group 3" transform="translate(371 659)">
      <g id="Repeat_Grid_1" data-name="Repeat Grid 1" transform="translate(88 15)" clip-path="url(#clip-path)">
        <g transform="translate(-421 -764)">
          <g id="Ellipse_1" data-name="Ellipse 1" transform="translate(421 764)" fill="#0f0f0f" stroke="#707070" stroke-width="1">
            <ellipse cx="4.5" cy="5.5" rx="4.5" ry="5.5" stroke="none"/>
            <ellipse cx="4.5" cy="5.5" rx="4" ry="5" fill="none"/>
          </g>
        </g>
        <g transform="translate(-409 -764)">
          <g id="Ellipse_1-2" data-name="Ellipse 1" transform="translate(421 764)" fill="#0f0f0f" stroke="#707070" stroke-width="1">
            <ellipse cx="4.5" cy="5.5" rx="4.5" ry="5.5" stroke="none"/>
            <ellipse cx="4.5" cy="5.5" rx="4" ry="5" fill="none"/>
          </g>
        </g>
        <g transform="translate(-397 -764)">
          <g id="Ellipse_1-3" data-name="Ellipse 1" transform="translate(421 764)" fill="#0f0f0f" stroke="#707070" stroke-width="1">
            <ellipse cx="4.5" cy="5.5" rx="4.5" ry="5.5" stroke="none"/>
            <ellipse cx="4.5" cy="5.5" rx="4" ry="5" fill="none"/>
          </g>
        </g>
      </g>
      <g id="Group_1" data-name="Group 1">
        <text id="start" transform="translate(0 22)" fill="#707070" font-size="20" font-family="SegoeUI, Segoe UI"><tspan x="0" y="0">start</tspan></text>
        <g id="Rectangle_17" data-name="Rectangle 17" transform="translate(0 27)" fill="#fff" stroke="#707070" stroke-width="1">
          <rect width="65" height="25" stroke="none"/>
          <rect x="0.5" y="0.5" width="64" height="24" fill="none"/>
        </g>
        <text id="_0:10" data-name="0:10" transform="translate(12 45)" fill="#707070" font-size="20" font-family="SegoeUI, Segoe UI"><tspan x="0" y="0">0:10</tspan></text>
      </g>
      <g id="Group_2" data-name="Group 2" transform="translate(0 52)">
        <text id="Length" transform="translate(0 22)" fill="#707070" font-size="20" font-family="SegoeUI, Segoe UI"><tspan x="0" y="0">Length</tspan></text>
        <g id="Rectangle_17-2" data-name="Rectangle 17" transform="translate(0 27)" fill="#fff" stroke="#707070" stroke-width="1">
          <rect width="65" height="25" stroke="none"/>
          <rect x="0.5" y="0.5" width="64" height="24" fill="none"/>
        </g>
        <text id="_0:17" data-name="0:17" transform="translate(12 45)" fill="#707070" font-size="20" font-family="SegoeUI, Segoe UI"><tspan x="0" y="0">0:17</tspan></text>
      </g>
    </g>
    <g id="Ellipse_1-4" data-name="Ellipse 1" transform="translate(1025 670)" fill="#0f0f0f" stroke="#707070" stroke-width="1">
      <ellipse cx="4.5" cy="5.5" rx="4.5" ry="5.5" stroke="none"/>
      <ellipse cx="4.5" cy="5.5" rx="4" ry="5" fill="none"/>
    </g>
    <g id="Ellipse_1-5" data-name="Ellipse 1" transform="translate(1037 670)" fill="#0f0f0f" stroke="#707070" stroke-width="1">
      <ellipse cx="4.5" cy="5.5" rx="4.5" ry="5.5" stroke="none"/>
      <ellipse cx="4.5" cy="5.5" rx="4" ry="5" fill="none"/>
    </g>
    <g id="Ellipse_1-6" data-name="Ellipse 1" transform="translate(1049 670)" fill="#0f0f0f" stroke="#707070" stroke-width="1">
      <ellipse cx="4.5" cy="5.5" rx="4.5" ry="5.5" stroke="none"/>
      <ellipse cx="4.5" cy="5.5" rx="4" ry="5" fill="none"/>
    </g>
    <text id="Start-2" data-name="Start" transform="translate(937 681)" fill="#707070" font-size="20" font-family="SegoeUI, Segoe UI"><tspan x="0" y="0">Start</tspan></text>
    <g id="Rectangle_17-3" data-name="Rectangle 17" transform="translate(937 688)" fill="#fff" stroke="#707070" stroke-width="1">
      <rect width="65" height="25" stroke="none"/>
      <rect x="0.5" y="0.5" width="64" height="24" fill="none"/>
    </g>
    <text id="_0:00-2" data-name="0:00" transform="translate(949 706)" fill="#707070" font-size="20" font-family="SegoeUI, Segoe UI"><tspan x="0" y="0">0:00</tspan></text>
    <g id="Repeat_Grid_2" data-name="Repeat Grid 2" transform="translate(1103 164)" clip-path="url(#clip-path-2)">
      <g transform="translate(-537 -164)">
        <g id="Rectangle_18" data-name="Rectangle 18" transform="translate(537 164)" fill="#fff" stroke="#707070" stroke-width="1">
          <rect width="318" height="77" rx="24" stroke="none"/>
          <rect x="0.5" y="0.5" width="317" height="76" rx="23.5" fill="none"/>
        </g>
        <text id="Save_to_File" data-name="Save to File" transform="translate(575 203)" fill="#707070" font-size="20" font-family="SegoeUI, Segoe UI"><tspan x="0" y="0">Save to File</tspan></text>
      </g>
      <g transform="translate(-537 -67)">
        <g id="Rectangle_18-2" data-name="Rectangle 18" transform="translate(537 164)" fill="#fff" stroke="#707070" stroke-width="1">
          <rect width="318" height="77" rx="24" stroke="none"/>
          <rect x="0.5" y="0.5" width="317" height="76" rx="23.5" fill="none"/>
        </g>
        <text id="Play_current_display" data-name="Play current display" transform="translate(575 203)" fill="#707070" font-size="20" font-family="SegoeUI, Segoe UI"><tspan x="0" y="0">Play current display</tspan></text>
      </g>
    </g>
    <text id="Length-2" data-name="Length" transform="translate(937 730)" fill="#707070" font-size="20" font-family="SegoeUI, Segoe UI"><tspan x="0" y="0">Length</tspan></text>
    <g id="Rectangle_17-4" data-name="Rectangle 17" transform="translate(937 735)" fill="#fff" stroke="#707070" stroke-width="1">
      <rect width="65" height="25" stroke="none"/>
      <rect x="0.5" y="0.5" width="64" height="24" fill="none"/>
    </g>
    <text id="_0:30" data-name="0:30" transform="translate(948 752)" fill="#707070" font-size="20" font-family="SegoeUI, Segoe UI"><tspan x="0" y="0">0:30</tspan></text>
    <g id="Group_7" data-name="Group 7" transform="translate(-38 -734)">
      <g id="Group_8" data-name="Group 8" transform="translate(1084 753)">
        <g id="Rectangle_15" data-name="Rectangle 15" transform="translate(12)" stroke="#707070" stroke-width="1">
          <rect width="20" height="51" stroke="none"/>
          <rect x="0.5" y="0.5" width="19" height="50" fill="none"/>
        </g>
        <rect id="Rectangle_16" data-name="Rectangle 16" width="20" height="44" transform="translate(44 13) rotate(90)"/>
      </g>
      <text id="Add_Tab" data-name="Add Tab" transform="translate(1084 801)" fill="#707070" font-size="20" font-family="SegoeUI, Segoe UI"><tspan x="0" y="22">Add Tab</tspan></text>
    </g>
    <text id="_0:00-3" data-name="0:00" transform="translate(133 924)" fill="#707070" font-size="20" font-family="SegoeUI, Segoe UI"><tspan x="0" y="0">0:00</tspan></text>
    <g id="Component_1_2" data-name="Component 1 – 2" transform="translate(125 802)">
      <g id="Rectangle_7-3" data-name="Rectangle 7" fill="#fff" stroke="#707070" stroke-width="1">
        <rect width="388" height="104" stroke="none"/>
        <rect x="0.5" y="0.5" width="387" height="103" fill="none"/>
      </g>
      <text id="Big_Buck_Bunny_.mp4-2" data-name="Big Buck Bunny .mp4" transform="translate(44 80)" fill="#707070" font-size="20" font-family="SegoeUI, Segoe UI"><tspan x="0" y="0">Big Buck Bunny .mp4</tspan></text>
      <g id="Rectangle_10-3" data-name="Rectangle 10" transform="translate(374 7)" fill="#fff" stroke="#707070" stroke-width="1">
        <rect width="8" height="90" stroke="none"/>
        <rect x="0.5" y="0.5" width="7" height="89" fill="none"/>
      </g>
      <g id="Rectangle_11-2" data-name="Rectangle 11" transform="translate(7 6)" fill="#fff" stroke="#707070" stroke-width="1">
        <rect width="8" height="89" stroke="none"/>
        <rect x="0.5" y="0.5" width="7" height="88" fill="none"/>
      </g>
    </g>
    <g id="Rectangle_19" data-name="Rectangle 19" transform="translate(519 802)" fill="#fff" stroke="#707070" stroke-width="1">
      <rect width="647" height="101" stroke="none"/>
      <rect x="0.5" y="0.5" width="646" height="100" fill="none"/>
    </g>
    <text id="Choir.mp4-2" data-name="Choir.mp4" transform="translate(578 866)" fill="#707070" font-size="20" font-family="SegoeUI, Segoe UI"><tspan x="0" y="0">Choir.mp4</tspan></text>
    <g id="Component_1_3" data-name="Component 1 – 3" transform="translate(118 931)">
      <g id="Rectangle_7-4" data-name="Rectangle 7" fill="#fff" stroke="#707070" stroke-width="1">
        <rect width="388" height="104" stroke="none"/>
        <rect x="0.5" y="0.5" width="387" height="103" fill="none"/>
      </g>
      <text id="Big_Buck_Bunny_.mp4-3" data-name="Big Buck Bunny .mp4" transform="translate(44 80)" fill="#707070" font-size="20" font-family="SegoeUI, Segoe UI"><tspan x="0" y="0">Big Buck Bunny .mp4</tspan></text>
      <g id="Rectangle_10-4" data-name="Rectangle 10" transform="translate(374 7)" fill="#fff" stroke="#707070" stroke-width="1">
        <rect width="8" height="90" stroke="none"/>
        <rect x="0.5" y="0.5" width="7" height="89" fill="none"/>
      </g>
      <g id="Rectangle_11-3" data-name="Rectangle 11" transform="translate(7 6)" fill="#fff" stroke="#707070" stroke-width="1">
        <rect width="8" height="89" stroke="none"/>
        <rect x="0.5" y="0.5" width="7" height="88" fill="none"/>
      </g>
    </g>
    <g id="Rectangle_20" data-name="Rectangle 20" transform="translate(513 931)" fill="#fff" stroke="#707070" stroke-width="1">
      <rect width="646" height="102" stroke="none"/>
      <rect x="0.5" y="0.5" width="645" height="101" fill="none"/>
    </g>
    <rect id="Rectangle_12" data-name="Rectangle 12" width="247" height="411" transform="translate(1075 632)" fill="#fff"/>
    <text id="Choir.mp4-3" data-name="Choir.mp4" transform="translate(571 995)" fill="#707070" font-size="20" font-family="SegoeUI, Segoe UI"><tspan x="0" y="0">Choir.mp4</tspan></text>
    <g id="Group_6" data-name="Group 6" transform="translate(1134 644)">
      <g id="Rectangle_15-2" data-name="Rectangle 15" transform="translate(15)" stroke="#707070" stroke-width="1">
        <rect width="20" height="60" stroke="none"/>
        <rect x="0.5" y="0.5" width="19" height="59" fill="none"/>
      </g>
      <rect id="Rectangle_16-2" data-name="Rectangle 16" width="20" height="51" transform="translate(51 22) rotate(90)"/>
      <text id="Add_video" data-name="Add video" transform="translate(0 83)" fill="#707070" font-size="20" font-family="SegoeUI, Segoe UI"><tspan x="0" y="22">Add </tspan><tspan x="0" y="49">video</tspan></text>
    </g>
    <line id="Line_2" data-name="Line 2" y2="402" transform="translate(1075.5 631.5)" fill="none" stroke="#707070" stroke-width="1"/>
    <rect id="Rectangle_21" data-name="Rectangle 21" width="977" height="9" transform="translate(104 1026)" fill="#fff"/>
    <line id="Line_3" data-name="Line 3" x2="971" transform="translate(104.5 1026.5)" fill="none" stroke="#707070" stroke-width="1"/>
    <g id="Group_11" data-name="Group 11" transform="translate(2044 515) rotate(90)">
      <g id="Rectangle_8-2" data-name="Rectangle 8" transform="translate(119 932)" fill="#fff" stroke="#707070" stroke-linecap="round" stroke-width="1">
        <rect width="393" height="19" rx="9" stroke="none"/>
        <rect x="0.5" y="0.5" width="392" height="18" rx="8.5" fill="none"/>
      </g>
      <g id="Rectangle_9-2" data-name="Rectangle 9" transform="translate(119 932)" fill="#aca3a3" stroke="#707070" stroke-linecap="round" stroke-width="1">
        <rect width="300" height="19" rx="9" stroke="none"/>
        <rect x="0.5" y="0.5" width="299" height="18" rx="8.5" fill="none"/>
      </g>
    </g>
    <g id="Group_12" data-name="Group 12" transform="translate(1134 644)">
      <g id="Rectangle_15-3" data-name="Rectangle 15" transform="translate(15)" stroke="#707070" stroke-width="1">
        <rect width="20" height="60" stroke="none"/>
        <rect x="0.5" y="0.5" width="19" height="59" fill="none"/>
      </g>
      <rect id="Rectangle_16-3" data-name="Rectangle 16" width="20" height="51" transform="translate(51 22) rotate(90)"/>
      <text id="Add_video-2" data-name="Add video" transform="translate(0 83)" fill="#707070" font-size="20" font-family="SegoeUI, Segoe UI"><tspan x="0" y="22">Add </tspan><tspan x="0" y="49">video</tspan></text>
    </g>
    <g id="Group_13" data-name="Group 13" transform="translate(1134 644)">
      <g id="Rectangle_15-4" data-name="Rectangle 15" transform="translate(15)" stroke="#707070" stroke-width="1">
        <rect width="20" height="60" stroke="none"/>
        <rect x="0.5" y="0.5" width="19" height="59" fill="none"/>
      </g>
      <rect id="Rectangle_16-4" data-name="Rectangle 16" width="20" height="51" transform="translate(51 22) rotate(90)"/>
      <text id="Add_video-3" data-name="Add video" transform="translate(0 83)" fill="#707070" font-size="20" font-family="SegoeUI, Segoe UI"><tspan x="0" y="22">Add </tspan><tspan x="0" y="49">video</tspan></text>
    </g>
    <g id="Group_5" data-name="Group 5" transform="translate(1134 803)">
      <rect id="Rectangle_16-5" data-name="Rectangle 16" width="20" height="51" transform="translate(51 18) rotate(90)"/>
      <text id="Clone_screen" data-name="Clone
screen" transform="translate(0 83)" fill="#707070" font-size="20" font-family="SegoeUI, Segoe UI"><tspan x="0" y="22">Clone</tspan><tspan x="0" y="49">screen</tspan></text>
      <text id="_1" data-name="1" transform="translate(-1026 -103)" fill="#707070" font-size="20" font-family="SegoeUI, Segoe UI"><tspan x="0" y="22">1</tspan></text>
    </g>
    <rect id="Rectangle_22" data-name="Rectangle 22" width="20" height="51" transform="translate(1185 848) rotate(90)"/>
    <text id="_1-2" data-name="1" transform="translate(108 700)" fill="#707070" font-size="20" font-family="SegoeUI, Segoe UI"><tspan x="0" y="22">1</tspan></text>
    <text id="_2" data-name="2" transform="translate(108 833)" fill="#707070" font-size="20" font-family="SegoeUI, Segoe UI"><tspan x="0" y="22">2</tspan></text>
    <text id="_3" data-name="3" transform="translate(108 966)" fill="#707070" font-size="20" font-family="SegoeUI, Segoe UI"><tspan x="0" y="22">3</tspan></text>
  </g>
</svg>
